PathFileType	4	(X/Y/Z)	/Users/itak/Documents/Research/Walk-IL/dataset/trc/00537_00009.trc
DataRate	CameraRate	NumFrames	NumMarkers	Units	OrigDataRate	OrigDataStartFrame	OrigNumFrames
100.000000	100.000000	4	53	mm	100.000000	669	765
Frame#	Time	RPSI			LPSI			L3			STRN			T10			C7			CLAV			RBAK			LBAK			LSHO			LUPA			LAEL			LAOL			LWTS			LWPS			LFRA			LIFD			LHPS			LHTS			RSHO			RUPA			RAEL			RAOL			RWTS			RWPS			RFRA			RIFD			RHTS			RHPS			RBHD			LFHD			RFHD			LBHD			LHIP			RHIP			RASI			LASI			LKNE			LTHI			LANK			LTIP			LTOE			LMT1			LMT5			LHEE			RKNE			RTHI			RANK			RTIP			RTOE			RMT1			RMT5			RHEE			
		X1	Y1	Z1	X2	Y2	Z2	X3	Y3	Z3	X4	Y4	Z4	X5	Y5	Z5	X6	Y6	Z6	X7	Y7	Z7	X8	Y8	Z8	X9	Y9	Z9	X10	Y10	Z10	X11	Y11	Z11	X12	Y12	Z12	X13	Y13	Z13	X14	Y14	Z14	X15	Y15	Z15	X16	Y16	Z16	X17	Y17	Z17	X18	Y18	Z18	X19	Y19	Z19	X20	Y20	Z20	X21	Y21	Z21	X22	Y22	Z22	X23	Y23	Z23	X24	Y24	Z24	X25	Y25	Z25	X26	Y26	Z26	X27	Y27	Z27	X28	Y28	Z28	X29	Y29	Z29	X30	Y30	Z30	X31	Y31	Z31	X32	Y32	Z32	X33	Y33	Z33	X34	Y34	Z34	X35	Y35	Z35	X36	Y36	Z36	X37	Y37	Z37	X38	Y38	Z38	X39	Y39	Z39	X40	Y40	Z40	X41	Y41	Z41	X42	Y42	Z42	X43	Y43	Z43	X44	Y44	Z44	X45	Y45	Z45	X46	Y46	Z46	X47	Y47	Z47	X48	Y48	Z48	X49	Y49	Z49	X50	Y50	Z50	X51	Y51	Z51	X52	Y52	Z52	X53	Y53	Z53	

670	6.69	1161.961059570312	1016.326904296875	467.4070129394531	1170.213256835938	1017.321899414062	334.0749206542969	1168.33154296875	1108.324951171875	396.0494384765625	1391.416381835938	1298.60791015625	395.1405944824219	1152.022583007812	1233.221923828125	391.4034729003906	1193.655151367188	1507.608032226562	400.0833129882812	1368.999145507812	1409.276123046875	393.5957641601562	1123.9619140625	1383.832763671875	489.4762878417969	1163.177490234375	1452.135498046875	308.1424255371094	1262.92626953125	1475.25830078125	227.8615264892578	1257.447998046875	1346.739868164062	150.4998321533203	1278.504638671875	1123.276123046875	134.7691497802734	1193.607421875	1117.211181640625	186.0359954833984	1364.325317382812	876.450439453125	177.5491333007812	1315.67578125	856.3368530273438	107.677131652832	1299.652221679688	1036.635375976562	126.9719924926758	1352.64501953125	705.9166259765625	171.4807586669922	1321.647583007812	795.9478149414062	114.9512710571289	1375.234619140625	798.4680786132812	156.7766418457031	1253.85107421875	1472.700927734375	557.1002807617188	1236.50244140625	1408.723388671875	625.6517333984375	1239.708251953125	1119.356811523438	675.516357421875	1185.112548828125	1099.565185546875	648.5790405273438	1384.153442382812	906.269775390625	641.8305053710938	1339.641479492188	884.5592651367188	707.1785278320312	1252.345825195312	1065.24169921875	684.2857666015625	1405.083618164062	733.9451293945312	647.5421142578125	1417.734130859375	816.8765869140625	658.6109619140625	1361.773193359375	811.9754028320312	707.6328125	1284.599243164062	1693.82275390625	462.7487182617188	1445.359252929688	1699.953857421875	330.7456665039062	1425.457641601562	1703.308715820312	476.0750732421875	1315.0654296875	1687.912353515625	300.7928466796875	1307.203857421875	936.9454956054688	210.2790679931641	1279.4873046875	947.1228637695312	596.9169311523438	1369.951538085938	977.7335205078125	542.8961791992188	1379.525024414062	962.8766479492188	267.7798461914062	1318.993896484375	492.2901916503906	294.9597473144531	1326.648803710938	656.3956909179688	252.1707305908203	1199.680541992188	34.51335906982422	311.5237121582031	1238.668823242188	249.8803558349609	294.1929016113281	1401.7763671875	39.39341735839844	396.7537841796875	1324.994750976562	44.61213302612305	421.0866088867188	1321.37158203125	35.07192230224609	311.2529602050781	1126.207275390625	39.71414184570312	356.2369995117188	1310.5703125	501.2097473144531	551.2387084960938	1325.683227539062	791.3843994140625	594.064453125	1198.68896484375	41.34406280517578	532.1407470703125	1303.30419921875	356.9998779296875	537.7216186523438	1420.578125	41.77108764648438	499.1969299316406	1356.900390625	41.94160842895508	456.3627624511719	1330.705200195312	41.20487594604492	557.4695434570312	1145.509643554688	35.26486206054688	474.8597106933594	
671	6.7	1162.34228515625	1016.727355957031	468.0843200683594	1170.372924804688	1017.677368164062	334.7657165527344	1168.72998046875	1108.478881835938	396.7004089355469	1391.7451171875	1298.662719726562	395.6539611816406	1152.2744140625	1233.380615234375	392.1083984375	1194.013061523438	1507.772216796875	400.6863098144531	1369.33740234375	1409.355346679688	394.1109924316406	1124.412109375	1383.9765625	490.1605224609375	1163.40625	1452.224609375	308.8167114257812	1263.160400390625	1475.37109375	228.4533996582031	1257.919921875	1346.863647460938	151.0831909179688	1279.76025390625	1123.44970703125	135.3796234130859	1194.780395507812	1117.090087890625	186.6520080566406	1366.594970703125	877.0487670898438	178.3333892822266	1318.0576171875	856.6624755859375	108.5015411376953	1301.236694335938	1036.88232421875	127.6931915283203	1355.696899414062	706.4385375976562	172.431396484375	1324.33447265625	796.30908203125	115.8193740844727	1377.881225585938	799.1031494140625	157.6596984863281	1254.363525390625	1472.797485351562	557.6919555664062	1237.085693359375	1408.827270507812	626.2633056640625	1240.341674804688	1119.452026367188	676.0608520507812	1185.670654296875	1099.670654296875	649.2750854492188	1385.06005859375	906.664794921875	641.6493530273438	1340.796752929688	884.7757568359375	707.0883178710938	1253.069458007812	1065.277221679688	684.662841796875	1406.401123046875	734.318115234375	647.0208740234375	1418.910400390625	817.3931884765625	658.1697998046875	1363.119140625	812.2818603515625	707.3900756835938	1284.888916015625	1693.92431640625	463.2893676757812	1445.537475585938	1700.148559570312	331.1830749511719	1425.719604492188	1703.5185546875	476.5794677734375	1315.221923828125	1688.046508789062	301.3075866699219	1306.673950195312	936.9797973632812	210.9873962402344	1280.17626953125	947.1707763671875	597.3086547851562	1370.26904296875	977.6367797851562	543.343505859375	1379.555908203125	962.8526000976562	268.1928100585938	1318.418701171875	492.3438415527344	295.1648864746094	1326.173706054688	656.419921875	252.2847900390625	1199.66015625	34.5264892578125	311.5488586425781	1238.287109375	249.9277801513672	294.4234619140625	1401.746337890625	39.40935516357422	396.7499084472656	1324.977416992188	44.60486602783203	421.0973205566406	1321.364379882812	35.08834838867188	311.2718200683594	1126.17919921875	39.68232345581055	356.27099609375	1308.949951171875	501.1768798828125	551.7012939453125	1326.014526367188	791.3102416992188	594.2708740234375	1198.657104492188	41.25801086425781	532.1511840820312	1301.963500976562	357.1323547363281	537.9896240234375	1420.549438476562	41.78361511230469	499.1980590820312	1356.878540039062	41.94235229492188	456.3691711425781	1330.661987304688	41.19256973266602	557.4677734375	1145.502563476562	35.07047271728516	474.854248046875	
672	6.71	1162.674926757812	1017.098205566406	468.7608642578125	1170.55712890625	1017.980712890625	335.4092102050781	1169.1728515625	1108.613403320312	397.3411865234375	1392.06640625	1298.708374023438	396.1520690917969	1152.518798828125	1233.509521484375	392.8106079101562	1194.345703125	1507.911376953125	401.30712890625	1369.67431640625	1409.416870117188	394.5966491699219	1124.844848632812	1384.112670898438	490.8532409667969	1163.633911132812	1452.292358398438	309.4754638671875	1263.3759765625	1475.47314453125	229.0448608398438	1258.375854492188	1346.976318359375	151.6601867675781	1281.031372070312	1123.619995117188	135.9722595214844	1195.930297851562	1116.947631835938	187.2584228515625	1368.946166992188	877.6924438476562	179.1908874511719	1320.56103515625	856.9979248046875	109.3727645874023	1302.855590820312	1037.1298828125	128.4317779541016	1358.948974609375	707.0107421875	173.4535980224609	1327.162719726562	796.685791015625	116.7624282836914	1380.664794921875	799.7922973632812	158.6157073974609	1254.85791015625	1472.88427734375	558.2820434570312	1237.65185546875	1408.915649414062	626.8705444335938	1240.978637695312	1119.513427734375	676.6005859375	1186.216918945312	1099.745483398438	649.9683227539062	1385.9072265625	906.992431640625	641.470703125	1341.894897460938	884.9472045898438	707.0108642578125	1253.790649414062	1065.30712890625	685.0567626953125	1407.610717773438	734.614501953125	646.5291137695312	1420.005249023438	817.8330078125	657.7402954101562	1364.3837890625	812.5252685546875	707.1555786132812	1285.165649414062	1693.990966796875	463.8453369140625	1445.686645507812	1700.341674804688	331.6080017089844	1425.969604492188	1703.722412109375	477.0840148925781	1315.359130859375	1688.190673828125	301.8099975585938	1306.136108398438	937.0061645507812	211.6579284667969	1280.666259765625	947.2101440429688	597.7556762695312	1370.56982421875	977.5287475585938	543.8018798828125	1379.594970703125	962.8283081054688	268.5907287597656	1317.87353515625	492.4002075195312	295.3419799804688	1325.720458984375	656.4413452148438	252.3639831542969	1199.639526367188	34.5411491394043	311.5723266601562	1237.929077148438	249.9760589599609	294.6212158203125	1401.716918945312	39.42641067504883	396.7439575195312	1324.957641601562	44.59487152099609	421.1109924316406	1321.35791015625	35.10295104980469	311.2889099121094	1126.149780273438	39.64836502075195	356.3080749511719	1307.38818359375	501.1282348632812	552.1318359375	1326.125732421875	791.2337036132812	594.556396484375	1198.62841796875	41.18415832519531	532.1477661132812	1300.659912109375	357.2584838867188	538.2456665039062	1420.512817382812	41.78664779663086	499.2144165039062	1356.859008789062	41.94186019897461	456.3745422363281	1330.616821289062	41.1800537109375	557.465087890625	1145.491943359375	34.88833236694336	474.8313903808594	
673	6.72	1162.963134765625	1017.435852050781	469.4322204589844	1170.779663085938	1018.219177246094	335.9886779785156	1169.6259765625	1108.726928710938	397.9713745117188	1392.380859375	1298.744262695312	396.6348876953125	1152.759765625	1233.60693359375	393.5162048339844	1194.65283203125	1508.020874023438	401.94482421875	1370.008544921875	1409.462280273438	395.0595703125	1125.257202148438	1384.235473632812	491.5506896972656	1163.864013671875	1452.342651367188	310.1140747070312	1263.5732421875	1475.56591796875	229.6381378173828	1258.814575195312	1347.076171875	152.2318878173828	1282.3134765625	1123.786987304688	136.5451202392578	1197.059936523438	1116.78466796875	187.8394012451172	1371.363647460938	878.381591796875	180.1290435791016	1323.17822265625	857.34521484375	110.2898864746094	1304.50390625	1037.379516601562	129.1829376220703	1362.384643554688	707.6351318359375	174.5528869628906	1330.122314453125	797.0800170898438	117.775520324707	1383.572509765625	800.5364990234375	159.6462249755859	1255.325927734375	1472.9599609375	558.8641357421875	1238.192504882812	1408.989990234375	627.4701538085938	1241.618408203125	1119.544921875	677.1311645507812	1186.754516601562	1099.783203125	650.6514282226562	1386.6923828125	907.2514038085938	641.3045043945312	1342.930419921875	885.0707397460938	706.94580078125	1254.5078125	1065.33203125	685.47998046875	1408.704345703125	734.8395385742188	646.080810546875	1421.015380859375	818.1867065429688	657.3406372070312	1365.555908203125	812.7027587890625	706.9313354492188	1285.430419921875	1694.026977539062	464.4147033691406	1445.807739257812	1700.5322265625	332.0202026367188	1426.2080078125	1703.916625976562	477.5836181640625	1315.478149414062	1688.341430664062	302.3014526367188	1305.556274414062	937.0299072265625	212.2580108642578	1280.9365234375	947.250732421875	598.2696533203125	1370.85546875	977.4131469726562	544.2742309570312	1379.642578125	962.8057250976562	268.9751281738281	1317.370971679688	492.4560852050781	295.4944763183594	1325.294555664062	656.4613647460938	252.4110260009766	1199.618408203125	34.5563850402832	311.5951843261719	1237.608642578125	250.0317535400391	294.7809143066406	1401.689208984375	39.44406890869141	396.7356872558594	1324.935668945312	44.58172988891602	421.1286315917969	1321.3525390625	35.11579895019531	311.3035278320312	1126.120361328125	39.61400604248047	356.3471374511719	1305.889526367188	501.0721435546875	552.5253295898438	1326.024169921875	791.1600952148438	594.9282836914062	1198.603515625	41.12548446655273	532.1315307617188	1299.397216796875	357.3775329589844	538.4862060546875	1420.473022460938	41.78323745727539	499.2401733398438	1356.843017578125	41.94002532958984	456.3778686523438	1330.57177734375	41.1675910949707	557.4602661132812	1145.480102539062	34.72221374511719	474.7930297851562	
